<svg width="29" height="30" viewBox="0 0 29 30" fill="none" xmlns="http://www.w3.org/2000/svg">
<path d="M16.8033 14.1696L16.4498 14.5231L16.8033 14.8767L28.0953 26.169L28.0954 26.1691C28.6349 26.7084 28.6349 27.5793 28.0954 28.1185L28.0953 28.1186C27.8263 28.3877 27.474 28.5226 27.1205 28.5226C26.7671 28.5226 26.4148 28.3877 26.1458 28.1186L14.8534 16.8262L14.4998 16.4727L14.1463 16.8262L2.85426 28.1186C2.5852 28.3877 2.23297 28.5226 1.87948 28.5226C1.52585 28.5226 1.17342 28.3876 0.904869 28.1188L0.90462 28.1185C0.365127 27.5793 0.365127 26.7084 0.90462 26.1691L0.904708 26.169L12.1967 14.8767L12.5503 14.5231L12.1967 14.1696L0.904708 2.8772L0.90462 2.87711C0.365127 2.33787 0.365127 1.46696 0.90462 0.927721L0.904703 0.927638C1.44389 0.388454 2.31458 0.388305 2.85425 0.927633C2.85428 0.927662 2.85431 0.927691 2.85434 0.927721L14.1463 12.22L14.4998 12.5736L14.8534 12.22L26.1458 0.927638C26.685 0.388378 27.5561 0.388378 28.0953 0.927638L28.0954 0.927721C28.6349 1.46696 28.6349 2.33787 28.0954 2.87711L28.0953 2.8772L16.8033 14.1696Z" fill="black" stroke="black"/>
</svg>
